<mxfile host="65bd71144e">
    <diagram name="Page-1" id="i0Og0DgrA8-Swl__wC8m">
        <mxGraphModel dx="1183" dy="652" grid="1" gridSize="10" guides="1" tooltips="1" connect="1" arrows="1" fold="1" page="1" pageScale="1" pageWidth="850" pageHeight="1100" math="0" shadow="0">
            <root>
                <mxCell id="0"/>
                <mxCell id="1" parent="0"/>
                <mxCell id="gQTu4yViG4mN7dmzVnCT-1" value="" style="rounded=1;whiteSpace=wrap;html=1;fillColor=#ffe6cc;strokeColor=#d79b00;opacity=50;" parent="1" vertex="1">
                    <mxGeometry x="160" y="80" width="380" height="280" as="geometry"/>
                </mxCell>
                <mxCell id="gQTu4yViG4mN7dmzVnCT-2" value="Encrypt/Decrypt" style="text;html=1;align=center;verticalAlign=middle;whiteSpace=wrap;rounded=0;" parent="1" vertex="1">
                    <mxGeometry x="305" y="80" width="90" height="30" as="geometry"/>
                </mxCell>
                <mxCell id="gQTu4yViG4mN7dmzVnCT-7" value="" style="group" parent="1" vertex="1" connectable="0">
                    <mxGeometry x="460" y="250" width="47.5" height="70" as="geometry"/>
                </mxCell>
                <mxCell id="gQTu4yViG4mN7dmzVnCT-3" value="" style="verticalLabelPosition=bottom;html=1;verticalAlign=top;align=center;strokeColor=none;fillColor=#666666;shape=mxgraph.azure.user;" parent="gQTu4yViG4mN7dmzVnCT-7" vertex="1">
                    <mxGeometry width="47.5" height="50" as="geometry"/>
                </mxCell>
                <mxCell id="gQTu4yViG4mN7dmzVnCT-6" value="&lt;font style=&quot;font-size: 10px;&quot;&gt;Alice&lt;/font&gt;" style="text;html=1;align=center;verticalAlign=middle;whiteSpace=wrap;rounded=0;" parent="gQTu4yViG4mN7dmzVnCT-7" vertex="1">
                    <mxGeometry x="11" y="50" width="26.25" height="20" as="geometry"/>
                </mxCell>
                <mxCell id="gQTu4yViG4mN7dmzVnCT-8" value="" style="group" parent="1" vertex="1" connectable="0">
                    <mxGeometry x="180" y="110" width="47.5" height="70" as="geometry"/>
                </mxCell>
                <mxCell id="gQTu4yViG4mN7dmzVnCT-4" value="" style="verticalLabelPosition=bottom;html=1;verticalAlign=top;align=center;strokeColor=none;fillColor=#666666;shape=mxgraph.azure.user;" parent="gQTu4yViG4mN7dmzVnCT-8" vertex="1">
                    <mxGeometry width="47.5" height="50" as="geometry"/>
                </mxCell>
                <mxCell id="gQTu4yViG4mN7dmzVnCT-5" value="&lt;font style=&quot;font-size: 10px;&quot;&gt;Bob&lt;/font&gt;" style="text;html=1;align=center;verticalAlign=middle;whiteSpace=wrap;rounded=0;" parent="gQTu4yViG4mN7dmzVnCT-8" vertex="1">
                    <mxGeometry x="10.629999999999995" y="50" width="26.25" height="20" as="geometry"/>
                </mxCell>
                <mxCell id="gQTu4yViG4mN7dmzVnCT-12" value="Message" style="whiteSpace=wrap;html=1;aspect=fixed;fillColor=#f5f5f5;fontColor=#333333;strokeColor=#666666;" parent="1" vertex="1">
                    <mxGeometry x="240" y="120" width="50" height="50" as="geometry"/>
                </mxCell>
                <mxCell id="gQTu4yViG4mN7dmzVnCT-13" value="" style="endArrow=classic;html=1;rounded=0;" parent="1" edge="1">
                    <mxGeometry width="50" height="50" relative="1" as="geometry">
                        <mxPoint x="300" y="144.70999999999998" as="sourcePoint"/>
                        <mxPoint x="350" y="144.70999999999998" as="targetPoint"/>
                    </mxGeometry>
                </mxCell>
                <mxCell id="gQTu4yViG4mN7dmzVnCT-16" value="&lt;font style=&quot;font-size: 8px;&quot;&gt;public key of Alice&lt;/font&gt;" style="text;html=1;align=center;verticalAlign=middle;whiteSpace=wrap;rounded=0;" parent="1" vertex="1">
                    <mxGeometry x="300" y="150" width="50" height="20" as="geometry"/>
                </mxCell>
                <mxCell id="gQTu4yViG4mN7dmzVnCT-17" value="" style="html=1;verticalLabelPosition=bottom;align=center;labelBackgroundColor=#ffffff;verticalAlign=top;strokeWidth=2;strokeColor=#CC0066;shadow=0;dashed=0;shape=mxgraph.ios7.icons.settings;" parent="1" vertex="1">
                    <mxGeometry x="360" y="120" width="55" height="50" as="geometry"/>
                </mxCell>
                <mxCell id="gQTu4yViG4mN7dmzVnCT-18" value="&lt;font style=&quot;font-size: 8px;&quot;&gt;RSA Encyption&lt;/font&gt;&lt;div&gt;&lt;font style=&quot;font-size: 8px;&quot;&gt;operation&lt;/font&gt;&lt;/div&gt;" style="text;html=1;align=center;verticalAlign=middle;whiteSpace=wrap;rounded=0;" parent="1" vertex="1">
                    <mxGeometry x="357.5" y="170" width="60" height="20" as="geometry"/>
                </mxCell>
                <mxCell id="gQTu4yViG4mN7dmzVnCT-19" value="" style="shape=step;perimeter=stepPerimeter;whiteSpace=wrap;html=1;fixedSize=1;fillColor=#d5e8d4;strokeColor=#82b366;" parent="1" vertex="1">
                    <mxGeometry x="460" y="130" width="50" height="30" as="geometry"/>
                </mxCell>
                <mxCell id="gQTu4yViG4mN7dmzVnCT-20" value="" style="endArrow=classic;html=1;rounded=0;" parent="1" edge="1">
                    <mxGeometry width="50" height="50" relative="1" as="geometry">
                        <mxPoint x="417.5" y="144.70999999999998" as="sourcePoint"/>
                        <mxPoint x="467.5" y="144.70999999999998" as="targetPoint"/>
                    </mxGeometry>
                </mxCell>
                <mxCell id="gQTu4yViG4mN7dmzVnCT-21" value="&lt;font style=&quot;font-size: 9px;&quot;&gt;Msg encrypted&lt;/font&gt;" style="text;html=1;align=center;verticalAlign=middle;whiteSpace=wrap;rounded=0;" parent="1" vertex="1">
                    <mxGeometry x="460" y="160" width="50" height="30" as="geometry"/>
                </mxCell>
                <mxCell id="gQTu4yViG4mN7dmzVnCT-23" value="" style="endArrow=classic;html=1;rounded=0;" parent="1" edge="1">
                    <mxGeometry width="50" height="50" relative="1" as="geometry">
                        <mxPoint x="484.71000000000004" y="195" as="sourcePoint"/>
                        <mxPoint x="484.71000000000004" y="245" as="targetPoint"/>
                    </mxGeometry>
                </mxCell>
                <mxCell id="gQTu4yViG4mN7dmzVnCT-24" value="" style="shape=step;perimeter=stepPerimeter;whiteSpace=wrap;html=1;fixedSize=1;fillColor=#d5e8d4;strokeColor=#82b366;rotation=-180;" parent="1" vertex="1">
                    <mxGeometry x="390" y="270" width="50" height="30" as="geometry"/>
                </mxCell>
                <mxCell id="gQTu4yViG4mN7dmzVnCT-25" value="&lt;font style=&quot;font-size: 9px;&quot;&gt;Msg encrypted&lt;/font&gt;" style="text;html=1;align=center;verticalAlign=middle;whiteSpace=wrap;rounded=0;" parent="1" vertex="1">
                    <mxGeometry x="390" y="300" width="50" height="30" as="geometry"/>
                </mxCell>
                <mxCell id="gQTu4yViG4mN7dmzVnCT-26" value="" style="endArrow=classic;html=1;rounded=0;" parent="1" edge="1">
                    <mxGeometry width="50" height="50" relative="1" as="geometry">
                        <mxPoint x="380" y="284.71" as="sourcePoint"/>
                        <mxPoint x="330" y="284.71" as="targetPoint"/>
                    </mxGeometry>
                </mxCell>
                <mxCell id="gQTu4yViG4mN7dmzVnCT-27" value="&lt;font style=&quot;font-size: 8px;&quot;&gt;private key of Alice&lt;/font&gt;" style="text;html=1;align=center;verticalAlign=middle;whiteSpace=wrap;rounded=0;" parent="1" vertex="1">
                    <mxGeometry x="330" y="260" width="50" height="20" as="geometry"/>
                </mxCell>
                <mxCell id="gQTu4yViG4mN7dmzVnCT-28" value="" style="html=1;verticalLabelPosition=bottom;align=center;labelBackgroundColor=#ffffff;verticalAlign=top;strokeWidth=2;strokeColor=#CC0066;shadow=0;dashed=0;shape=mxgraph.ios7.icons.settings;" parent="1" vertex="1">
                    <mxGeometry x="270" y="260" width="55" height="50" as="geometry"/>
                </mxCell>
                <mxCell id="gQTu4yViG4mN7dmzVnCT-29" value="&lt;font style=&quot;font-size: 8px;&quot;&gt;RSA decyption&lt;/font&gt;&lt;div&gt;&lt;font style=&quot;font-size: 8px;&quot;&gt;operation&lt;/font&gt;&lt;/div&gt;" style="text;html=1;align=center;verticalAlign=middle;whiteSpace=wrap;rounded=0;" parent="1" vertex="1">
                    <mxGeometry x="267.5" y="310" width="60" height="20" as="geometry"/>
                </mxCell>
                <mxCell id="gQTu4yViG4mN7dmzVnCT-30" value="Message" style="whiteSpace=wrap;html=1;aspect=fixed;fillColor=#f5f5f5;fontColor=#333333;strokeColor=#666666;" parent="1" vertex="1">
                    <mxGeometry x="170" y="260" width="50" height="50" as="geometry"/>
                </mxCell>
                <mxCell id="gQTu4yViG4mN7dmzVnCT-31" value="" style="endArrow=classic;html=1;rounded=0;" parent="1" edge="1">
                    <mxGeometry width="50" height="50" relative="1" as="geometry">
                        <mxPoint x="267.5" y="284.71" as="sourcePoint"/>
                        <mxPoint x="227.5" y="284.71" as="targetPoint"/>
                    </mxGeometry>
                </mxCell>
                <mxCell id="gQTu4yViG4mN7dmzVnCT-32" value="" style="rounded=1;whiteSpace=wrap;html=1;fillColor=#ffe6cc;strokeColor=#d79b00;opacity=50;" parent="1" vertex="1">
                    <mxGeometry x="640" y="80" width="380" height="300" as="geometry"/>
                </mxCell>
                <mxCell id="gQTu4yViG4mN7dmzVnCT-33" value="Certificat Generation&lt;div&gt;CA&lt;/div&gt;" style="text;html=1;align=center;verticalAlign=middle;whiteSpace=wrap;rounded=0;" parent="1" vertex="1">
                    <mxGeometry x="767.5" y="80" width="125" height="30" as="geometry"/>
                </mxCell>
                <mxCell id="gQTu4yViG4mN7dmzVnCT-36" value="" style="group" parent="1" vertex="1" connectable="0">
                    <mxGeometry x="660" y="120" width="47.5" height="70" as="geometry"/>
                </mxCell>
                <mxCell id="gQTu4yViG4mN7dmzVnCT-37" value="" style="verticalLabelPosition=bottom;html=1;verticalAlign=top;align=center;strokeColor=none;fillColor=#666666;shape=mxgraph.azure.user;" parent="gQTu4yViG4mN7dmzVnCT-36" vertex="1">
                    <mxGeometry width="47.5" height="50" as="geometry"/>
                </mxCell>
                <mxCell id="gQTu4yViG4mN7dmzVnCT-38" value="&lt;font style=&quot;font-size: 10px;&quot;&gt;Bob&lt;/font&gt;" style="text;html=1;align=center;verticalAlign=middle;whiteSpace=wrap;rounded=0;" parent="gQTu4yViG4mN7dmzVnCT-36" vertex="1">
                    <mxGeometry x="10.629999999999995" y="50" width="26.25" height="20" as="geometry"/>
                </mxCell>
                <mxCell id="gQTu4yViG4mN7dmzVnCT-39" value="" style="endArrow=classic;html=1;rounded=0;" parent="1" edge="1">
                    <mxGeometry width="50" height="50" relative="1" as="geometry">
                        <mxPoint x="720" y="154.71" as="sourcePoint"/>
                        <mxPoint x="800" y="154.71" as="targetPoint"/>
                    </mxGeometry>
                </mxCell>
                <mxCell id="gQTu4yViG4mN7dmzVnCT-41" value="&lt;font style=&quot;font-size: 9px;&quot;&gt;Request&lt;/font&gt;" style="text;html=1;align=center;verticalAlign=middle;whiteSpace=wrap;rounded=0;" parent="1" vertex="1">
                    <mxGeometry x="730" y="140" width="50" height="10" as="geometry"/>
                </mxCell>
                <mxCell id="gQTu4yViG4mN7dmzVnCT-42" value="&lt;font style=&quot;font-size: 8px;&quot;&gt;infos of Bob + pub K&lt;/font&gt;" style="shape=step;perimeter=stepPerimeter;whiteSpace=wrap;html=1;fixedSize=1;fillColor=#e1d5e7;strokeColor=#9673a6;opacity=50;" parent="1" vertex="1">
                    <mxGeometry x="720" y="160" width="90" height="20" as="geometry"/>
                </mxCell>
                <mxCell id="gQTu4yViG4mN7dmzVnCT-44" value="" style="group" parent="1" vertex="1" connectable="0">
                    <mxGeometry x="820" y="125" width="70" height="75" as="geometry"/>
                </mxCell>
                <mxCell id="gQTu4yViG4mN7dmzVnCT-35" value="" style="shape=mxgraph.cisco.misc.cisco_ca;html=1;pointerEvents=1;dashed=0;fillColor=#036897;strokeColor=#ffffff;strokeWidth=2;verticalLabelPosition=bottom;verticalAlign=top;align=center;outlineConnect=0;" parent="gQTu4yViG4mN7dmzVnCT-44" vertex="1">
                    <mxGeometry width="70" height="60" as="geometry"/>
                </mxCell>
                <mxCell id="gQTu4yViG4mN7dmzVnCT-43" value="&lt;font style=&quot;font-size: 9px;&quot;&gt;CA&lt;/font&gt;" style="text;html=1;align=center;verticalAlign=middle;whiteSpace=wrap;rounded=0;" parent="gQTu4yViG4mN7dmzVnCT-44" vertex="1">
                    <mxGeometry x="20" y="65" width="20" height="10" as="geometry"/>
                </mxCell>
                <mxCell id="gQTu4yViG4mN7dmzVnCT-45" value="" style="image;aspect=fixed;html=1;points=[];align=center;fontSize=12;image=img/lib/azure2/app_services/App_Service_Certificates.svg;" parent="1" vertex="1">
                    <mxGeometry x="930" y="208" width="68" height="62" as="geometry"/>
                </mxCell>
                <mxCell id="gQTu4yViG4mN7dmzVnCT-47" value="&lt;font style=&quot;font-size: 9px;&quot;&gt;Generation&lt;/font&gt;" style="text;html=1;align=center;verticalAlign=middle;whiteSpace=wrap;rounded=0;" parent="1" vertex="1">
                    <mxGeometry x="880" y="140" width="50" height="10" as="geometry"/>
                </mxCell>
                <mxCell id="gQTu4yViG4mN7dmzVnCT-52" style="edgeStyle=orthogonalEdgeStyle;rounded=0;orthogonalLoop=1;jettySize=auto;html=1;" parent="1" source="gQTu4yViG4mN7dmzVnCT-48" target="gQTu4yViG4mN7dmzVnCT-45" edge="1">
                    <mxGeometry relative="1" as="geometry"/>
                </mxCell>
                <mxCell id="gQTu4yViG4mN7dmzVnCT-48" value="" style="html=1;verticalLabelPosition=bottom;align=center;labelBackgroundColor=#ffffff;verticalAlign=top;strokeWidth=2;strokeColor=#CC0066;shadow=0;dashed=0;shape=mxgraph.ios7.icons.settings;" parent="1" vertex="1">
                    <mxGeometry x="936.5" y="130" width="55" height="50" as="geometry"/>
                </mxCell>
                <mxCell id="gQTu4yViG4mN7dmzVnCT-49" value="&lt;font style=&quot;font-size: 9px;&quot;&gt;Generate certificat without Signature&lt;/font&gt;" style="text;html=1;align=center;verticalAlign=middle;whiteSpace=wrap;rounded=0;" parent="1" vertex="1">
                    <mxGeometry x="922.63" y="110" width="82.75" height="10" as="geometry"/>
                </mxCell>
                <mxCell id="gQTu4yViG4mN7dmzVnCT-53" style="edgeStyle=orthogonalEdgeStyle;rounded=0;orthogonalLoop=1;jettySize=auto;html=1;entryX=0.006;entryY=0.502;entryDx=0;entryDy=0;entryPerimeter=0;" parent="1" source="gQTu4yViG4mN7dmzVnCT-35" target="gQTu4yViG4mN7dmzVnCT-48" edge="1">
                    <mxGeometry relative="1" as="geometry"/>
                </mxCell>
                <mxCell id="gQTu4yViG4mN7dmzVnCT-55" value="" style="html=1;verticalLabelPosition=bottom;align=center;labelBackgroundColor=#ffffff;verticalAlign=top;strokeWidth=2;strokeColor=#CC0066;shadow=0;dashed=0;shape=mxgraph.ios7.icons.settings;" parent="1" vertex="1">
                    <mxGeometry x="936.5" y="300" width="55" height="50" as="geometry"/>
                </mxCell>
                <mxCell id="gQTu4yViG4mN7dmzVnCT-56" style="edgeStyle=orthogonalEdgeStyle;rounded=0;orthogonalLoop=1;jettySize=auto;html=1;entryX=0.501;entryY=0.054;entryDx=0;entryDy=0;entryPerimeter=0;" parent="1" source="gQTu4yViG4mN7dmzVnCT-45" target="gQTu4yViG4mN7dmzVnCT-55" edge="1">
                    <mxGeometry relative="1" as="geometry"/>
                </mxCell>
                <mxCell id="gQTu4yViG4mN7dmzVnCT-57" value="&lt;font style=&quot;font-size: 9px;&quot;&gt;Hash calculation&lt;/font&gt;" style="text;html=1;align=center;verticalAlign=middle;whiteSpace=wrap;rounded=0;" parent="1" vertex="1">
                    <mxGeometry x="922.63" y="350" width="82.75" height="10" as="geometry"/>
                </mxCell>
                <mxCell id="gQTu4yViG4mN7dmzVnCT-59" style="edgeStyle=orthogonalEdgeStyle;rounded=0;orthogonalLoop=1;jettySize=auto;html=1;entryX=1.048;entryY=0.403;entryDx=0;entryDy=0;entryPerimeter=0;" parent="1" source="gQTu4yViG4mN7dmzVnCT-55" target="gQTu4yViG4mN7dmzVnCT-58" edge="1">
                    <mxGeometry relative="1" as="geometry"/>
                </mxCell>
                <mxCell id="gQTu4yViG4mN7dmzVnCT-61" value="" style="group" parent="1" vertex="1" connectable="0">
                    <mxGeometry x="812" y="300" width="68" height="62" as="geometry"/>
                </mxCell>
                <mxCell id="gQTu4yViG4mN7dmzVnCT-58" value="" style="image;aspect=fixed;html=1;points=[];align=center;fontSize=12;image=img/lib/azure2/app_services/App_Service_Certificates.svg;" parent="gQTu4yViG4mN7dmzVnCT-61" vertex="1">
                    <mxGeometry width="68" height="62" as="geometry"/>
                </mxCell>
                <mxCell id="gQTu4yViG4mN7dmzVnCT-60" value="" style="outlineConnect=0;dashed=0;verticalLabelPosition=bottom;verticalAlign=top;align=center;html=1;shape=mxgraph.aws3.certificate;fillColor=#5294CF;gradientColor=none;" parent="gQTu4yViG4mN7dmzVnCT-61" vertex="1">
                    <mxGeometry y="22" width="28" height="40" as="geometry"/>
                </mxCell>
                <mxCell id="gQTu4yViG4mN7dmzVnCT-62" value="&lt;font style=&quot;font-size: 9px;&quot;&gt;Certificat Signed&lt;/font&gt;" style="text;html=1;align=center;verticalAlign=middle;whiteSpace=wrap;rounded=0;" parent="1" vertex="1">
                    <mxGeometry x="804.63" y="290" width="82.75" height="10" as="geometry"/>
                </mxCell>
                <mxCell id="gQTu4yViG4mN7dmzVnCT-63" value="" style="whiteSpace=wrap;html=1;aspect=fixed;fillColor=#d5e8d4;strokeColor=#82b366;opacity=50;align=left;" parent="1" vertex="1">
                    <mxGeometry x="1030" y="340" width="100" height="100" as="geometry"/>
                </mxCell>
                <mxCell id="gQTu4yViG4mN7dmzVnCT-64" style="edgeStyle=orthogonalEdgeStyle;rounded=0;orthogonalLoop=1;jettySize=auto;html=1;entryX=0.971;entryY=0.482;entryDx=0;entryDy=0;entryPerimeter=0;" parent="1" source="gQTu4yViG4mN7dmzVnCT-63" target="gQTu4yViG4mN7dmzVnCT-55" edge="1">
                    <mxGeometry relative="1" as="geometry">
                        <Array as="points">
                            <mxPoint x="1040" y="324"/>
                        </Array>
                    </mxGeometry>
                </mxCell>
                <mxCell id="gQTu4yViG4mN7dmzVnCT-65" value="&lt;font style=&quot;text-align: left; font-size: 9px;&quot;&gt;1-Hashing of:&lt;/font&gt;&lt;div style=&quot;text-align: left; font-size: 9px;&quot;&gt;- certif infos.&lt;/div&gt;&lt;div style=&quot;text-align: left; font-size: 9px;&quot;&gt;- pub k user&lt;/div&gt;&lt;div style=&quot;text-align: left; font-size: 9px;&quot;&gt;- num&lt;/div&gt;&lt;div style=&quot;text-align: left; font-size: 9px;&quot;&gt;- date&lt;/div&gt;&lt;div style=&quot;text-align: left; font-size: 9px;&quot;&gt;&amp;nbsp; &amp;nbsp; &amp;nbsp; &amp;nbsp;&lt;/div&gt;&lt;div style=&quot;text-align: left; font-size: 9px;&quot;&gt;2- Encrypt the hash by private key of CA to generat the CSR/&lt;/div&gt;&lt;div style=&quot;text-align: left; font-size: 9px;&quot;&gt;&lt;br&gt;&lt;/div&gt;" style="text;html=1;align=center;verticalAlign=middle;whiteSpace=wrap;rounded=0;" parent="1" vertex="1">
                    <mxGeometry x="1030" y="350" width="100" height="80" as="geometry"/>
                </mxCell>
                <mxCell id="gQTu4yViG4mN7dmzVnCT-66" value="" style="endArrow=classic;html=1;rounded=0;exitX=0.016;exitY=0.306;exitDx=0;exitDy=0;exitPerimeter=0;" parent="1" source="gQTu4yViG4mN7dmzVnCT-58" target="gQTu4yViG4mN7dmzVnCT-38" edge="1">
                    <mxGeometry width="50" height="50" relative="1" as="geometry">
                        <mxPoint x="860" y="310" as="sourcePoint"/>
                        <mxPoint x="910" y="260" as="targetPoint"/>
                    </mxGeometry>
                </mxCell>
                <mxCell id="gQTu4yViG4mN7dmzVnCT-67" value="&lt;font style=&quot;font-size: 9px;&quot;&gt;Send the new certificat&lt;/font&gt;" style="text;html=1;align=center;verticalAlign=middle;whiteSpace=wrap;rounded=0;rotation=45;" parent="1" vertex="1">
                    <mxGeometry x="715" y="250" width="100" height="10" as="geometry"/>
                </mxCell>
                <mxCell id="2" value="Data" style="whiteSpace=wrap;html=1;aspect=fixed;" vertex="1" parent="1">
                    <mxGeometry x="180" y="430" width="80" height="80" as="geometry"/>
                </mxCell>
                <mxCell id="3" value="Hash Ex" style="rounded=0;whiteSpace=wrap;html=1;" vertex="1" parent="1">
                    <mxGeometry x="180" y="510" width="80" height="40" as="geometry"/>
                </mxCell>
                <mxCell id="4" value="Signé prive&lt;br&gt;on obtient la signature (Hash)" style="text;html=1;strokeColor=none;fillColor=none;align=center;verticalAlign=middle;whiteSpace=wrap;rounded=0;" vertex="1" parent="1">
                    <mxGeometry x="170" y="560" width="100" height="30" as="geometry"/>
                </mxCell>
                <mxCell id="6" value="Hash Ex" style="rounded=0;whiteSpace=wrap;html=1;" vertex="1" parent="1">
                    <mxGeometry x="395" y="520" width="80" height="40" as="geometry"/>
                </mxCell>
                <mxCell id="7" value="Data" style="whiteSpace=wrap;html=1;aspect=fixed;" vertex="1" parent="1">
                    <mxGeometry x="395" y="440" width="80" height="80" as="geometry"/>
                </mxCell>
                <mxCell id="8" value="Vérfi la signature&lt;br&gt;on doit trouver la&amp;nbsp;&lt;br&gt;même&amp;nbsp;" style="text;html=1;strokeColor=none;fillColor=none;align=center;verticalAlign=middle;whiteSpace=wrap;rounded=0;" vertex="1" parent="1">
                    <mxGeometry x="385" y="570" width="100" height="30" as="geometry"/>
                </mxCell>
            </root>
        </mxGraphModel>
    </diagram>
</mxfile>